# xmcd CD database file
#
# Track frame offsets:
#	150
#	10400
#	20159
#	32949
#	38404
#	50363
#	60803
#	71665
#	80257
#	95956
#	108143
#	119693
#
# Disc length: 1724 seconds
#
# Revision: 4
# Processed by: cddbd v1.5.2PL0 Copyright (c) Steve Scherf et al.
# Submitted via: jetAudio 5
#
DISCID=9906ba0c
DTITLE=Πλέσσας Μίμης - Χρυσή δισκοθήκη. Εφημ Espresso
DYEAR=1900
DGENRE=
TTITLE0=Ένας ουρανός μ΄ αστέρια
TTITLE1=Εδώ τελειώνει ο ουρανός
TTITLE2=Αν σ αρνηθώ αγάπη μου
TTITLE3=Φσσστ Μποϊνγκ
TTITLE4=Crazy girl
TTITLE5=Όσα τραγούδια ξέρω
TTITLE6=Οι θαλασσιές οι χάντρες
TTITLE7=Έχω στενάχωρη καρδιά
TTITLE8=’νοιξε πέτρα
TTITLE9=Καμαρούλα μια σταλιά
TTITLE10=Έκλαψα χτες
TTITLE11=Κράτα το φιλί
EXTD=
EXTT0=
EXTT1=
EXTT2=
EXTT3=
EXTT4=
EXTT5=
EXTT6=
EXTT7=
EXTT8=
EXTT9=
EXTT10=
EXTT11=
PLAYORDER=
